<svg xmlns="http://www.w3.org/2000/svg" viewBox="0 0 1281 220.29"><defs><style>.cls-1{fill:#1e5621;}.cls-2{fill:#3ea143;}.cls-3{fill:#0f0f4c;}</style></defs><g id="Calque_2" data-name="Calque 2"><g id="Calque_1-2" data-name="Calque 1"><path class="cls-1" d="M723.56,191c2.25-5.63,4.89-11.14,6.69-16.92,7.94-25.57-1.7-49.86-24.94-62.82-3.16-1.76-4.16-3.24-2.39-6.52,1-1.83,1.35-4,2.26-6.84,16.64,8.71,28,21.3,33,39.11C743.88,157.64,738.78,175.72,723.56,191Z"/><path class="cls-1" d="M622.84,121.11c3.54,2.72,6.54,4.66,9,7.12a5.67,5.67,0,0,1,1,4.67,52.07,52.07,0,0,1-3.85,9.93,6.69,6.69,0,0,1-3.74,3.07c-3.39,1-6.93,1.38-11.3,2.17C614.51,138.06,617.73,129.36,622.84,121.11Z"/><path class="cls-1" d="M667.49,91c.56,5,1.13,8.52,1.23,12a2,2,0,0,1-.42,1,11.88,11.88,0,0,1-7.88,5.22,6.66,6.66,0,0,1-5.37-1c-3-2.32-4.68-6.29-7.71-10.63Z"/><path class="cls-1" d="M718.72,185.11c2.28-9.4,5.08-19.87,3.61-29.54-.19-1.29-.38-2.58-.53-3.87-1.08-9-5.18-17.47-8.24-25.32C724.17,134.2,732.2,165,718.72,185.11Z"/><path class="cls-1" d="M688,202c-15.69,3.19-33.93-4.23-41.5-17.44,6.58,3.95,12.84,8.69,19.85,11.62S681.26,200.29,688,202Z"/><path class="cls-2" d="M709.21,175.65c-3-8.09-8.32-15.52-13.54-22.54-7.06-9.51-12-19.63-13.43-31.45-.39-3.27.54-4.81,3.91-5.71,9.37-2.51,15.07-8.69,15.67-18.53.44-7.24,0-14.54,0-21.81,0-2.62-.27-5.23-.42-7.85-8.88.69-20.35,6.63-25.48,12.92-6.65,8.17-6.91,21-.51,29.95,1.29-4.56,2.3-9.12,3.88-13.47,2.41-6.64,5-9.81,8-11-6.5,21.22-12.29,42.49-2,65.27-2.78-.87-3.9-.84-4.84-1.84-6.56-6.92-14-13-23.07-16.05-6.84-2.32-7.72-4.51-5.69-8.16,2.87-5.16,3.47-10.7.62-16-5.08-9.45-14.48-14.55-21.63-22-7,8.49-9.48,22.61-5.5,30,3.49,6.48,8.92,10.14,16,11.53-4.08-6.77-8.3-13.27-8-21.62,8.27,15.88,16.53,31.71,32.76,41.63-19.75.68-35.66,9.68-51.34,19.49,5.38-9.47,14.85-13,24.3-16.87-10.5-4.95-23.15-3.08-30.49,4.59-8,8.34-9.67,19-10.75,30.32a14.84,14.84,0,0,0,2.86.22c9-1.45,18.1-2.53,27-4.52,11.62-2.59,17.42-9.45,18.59-21.41.34-3.4,1.91-4.58,4.79-4.63,6.12-.11,12.29-.59,18.34,0,15.92,1.68,28.35,9.47,34.78,24.24,4.51,10.34,2.27,22.06-9.28,26.5a26.3,26.3,0,0,1-4.74,5h0C707.74,207.56,715.55,192.77,709.21,175.65Z"/><path class="cls-1" d="M694.75,206.9a25.3,25.3,0,0,1-3.94,1.17c-.86.18-1.77.33-2.71.44-21.9,2.54-39.47-4.83-52.28-23-.6-.85-1.79-2.1-2.45-2-3.37.71-6.66,1.82-10.65,3,1.93,2.7,3.25,4.89,4.9,6.78,16.85,19.4,38.31,24.43,62.39,18.58A26.3,26.3,0,0,0,694.75,206.9Z"/><path class="cls-3" d="M132.23,121.88l46.88,87c-20.28,14.48-36.94,7.62-50-8.07-10.49-12.6-18.19-27.64-26.42-42C90,136.68,71.29,127.15,42.74,128.94c0,22.09.73,43.26-.4,64.34-.39,7.4-5.34,14.55-8.21,21.82-9-4-20.28-6-26.22-12.74C2.39,196.11.77,184.83.6,175.71Q-.51,116.43.41,57.12C.92,23.22,12.71,5,46.08,1.18a194.54,194.54,0,0,1,80.57,8.08C165.18,21.91,189.36,80.8,132.23,121.88ZM78.14,99c30.83.1,44.89-9.85,45.66-32.3.73-21.28-18.54-36.72-46-36.83-26.06-.11-35.26,9.84-35.3,38.19C42.49,97.08,44.61,98.92,78.14,99Z"/><path class="cls-3" d="M1197.48,163.6c5.56,24,16.51,29.25,41.45,24.58,10.88-2,22.73,1,34.14,1.82-9,8.38-16.51,20.3-27.13,24.52-46.13,18.34-89.22-14.69-96.07-67.82-3.95-30.61,12.53-48.4,31.74-64.25,20.46-16.88,45.33-17,69.59-6.13,19,8.53,30.78,23.14,29.74,44.4s-15.55,32.43-34.93,36.47C1230.09,160.5,1213.71,161.54,1197.48,163.6Zm-.25-33.17c16.44,1.81,34.83,10,43.65-12,1.54-3.83-8-16.41-14.34-18.27C1210.66,95.57,1199,108.37,1197.23,130.43Z"/><path class="cls-3" d="M242.61,163.8c4.59,23.46,16,29.08,40.9,24.3,11-2.11,22.92,1,34.43,1.77-8.89,8.42-16.39,20-26.94,24.67-29.7,13-63.26,1.43-81.59-25.28-20.28-29.56-17.13-74.26,7-99,22.41-23,56.88-27.6,85.27-11,16.45,9.61,25.64,24,23.72,43.23-1.88,18.78-14.27,30.1-31.87,34C276.83,160.17,259.6,161.45,242.61,163.8Zm-.81-33.52c16.61,2.13,35.05,10.35,43.26-12.71,1.42-4-7-15.42-12.89-17.35C256.89,95.21,244.35,108.23,241.8,130.28Z"/><path class="cls-3" d="M801,77.28c0,19.21-.12,38.77.05,58.33.08,9.48-.57,19.23,1.4,28.37,2.92,13.54,8.37,25.76,25.94,25.65,17.34-.11,24.14-11.61,25.81-25.61,2-17.19.44-34.79,1.93-52.09.78-9.05,2.29-20.34,8-26.05,6.26-6.24,17.78-7.21,27-10.48,2.19,7,6.15,14,6.24,21,.29,23.69,1.21,47.66-1.8,71.05-4.78,36.94-31.66,54.61-74.54,52.27-36-2-57-21.85-59.41-57.81a432.3,432.3,0,0,1,0-56.91C763.2,81.38,772.58,74.83,801,77.28Z"/><path class="cls-3" d="M579.09,108.86c-16.1-2.39-28-4.85-40-5.67-7.67-.53-15.5,1.36-23.25,2.16,4.73,6,8.41,13.58,14.43,17.75,11.59,8,25.83,12.53,36.62,21.37,22.65,18.54,19.34,50.63-5.43,66.15C537.94,225.36,500,222.23,479.33,203c-4.05-3.77-5.52-10.33-8.19-15.6,6.3-2,12.77-6.17,18.84-5.63,9.22.82,18.07,6.59,27.24,7,6.76.32,13.77-4.51,20.67-7-3.92-5.87-6.68-13.3-12-17.24-8.14-6-18.24-9.35-27.2-14.36-18.37-10.26-27.95-25.24-23.71-47,4.15-21.3,20.21-29.37,38.86-33.09C538.06,65.24,566.26,80.15,579.09,108.86Z"/><path class="cls-3" d="M452.36,107.75c-16.17-1.45-26.88-2.92-37.62-3.2-9.12-.24-18.28.9-27.42,1.43,6.52,6.54,12.33,14.08,19.75,19.37,9.56,6.83,21.55,10.5,30.49,18,25.45,21.18,20.59,55.51-9.45,69.79-26.11,12.42-51.23,8.17-74-8.14-5.16-3.7-6.78-12.35-10-18.72,7.3-1.31,14.75-4.18,21.89-3.55,9.25.82,18.23,6.1,27.38,6.23,5.59.08,11.27-5.89,16.91-9.14-3.33-4.79-5.67-11.11-10.21-14.06-9.91-6.44-21.12-10.82-31.45-16.67-16.84-9.53-24.67-23.95-22.18-43.54C349,85,363.34,76,381.08,71,405,64.31,434.21,77.2,452.36,107.75Z"/><path class="cls-3" d="M1048.64,143.6c-.38,38.9,15.73,51,53,42.1,8.25-2,18.13,2.85,27.26,4.54-6.07,7.23-10.7,17.22-18.43,21.24-46.65,24.29-97.55-7.87-104.25-62.72-3.79-31,11.49-51,32.93-67.23,22-16.68,47.68-16.28,71.63-3.38,7.63,4.11,12.11,14.1,18,21.39-9.3,1.55-19.24,6-27.8,4.16C1063.78,95.54,1049,106.1,1048.64,143.6Z"/><path class="cls-3" d="M918.5,151.78c1.87-12.1,2.1-27.46,6.85-41.26,9.27-26.93,33.92-40.2,64.35-36.4,5.11.64,13.25,5.28,13.62,8.76.53,4.9-4,14.22-7.9,15.12-39.07,9.06-33.91,39.64-34.27,67.69-.11,8.67,1.33,17.62-.38,25.94-1.66,8-6.45,15.45-9.86,23.13-9.4-6-23.28-9.92-27.14-18.41C918.26,184.22,920.08,168.76,918.5,151.78Z"/></g></g></svg>