<svg xmlns="http://www.w3.org/2000/svg" viewBox="0 0 1604.83 1646"><defs><style>.cls-1{fill:#1e5621;}.cls-2{fill:#3ea143;}</style></defs><g id="Calque_2" data-name="Calque 2"><g id="Calque_1-2" data-name="Calque 1"><path class="cls-1" d="M1415.23,1384.84c25.3-63.29,55-125.23,75.13-190.12,89.25-287.45-19.1-560.51-280.35-706.22-35.54-19.83-46.75-36.46-26.86-73.37,11-20.5,15.14-44.75,25.41-76.83,187.08,97.92,314.74,239.47,370.4,439.6C1643.62,1010.39,1586.34,1213.7,1415.23,1384.84Z"/><path class="cls-1" d="M283,599.74c39.78,30.64,73.45,52.45,101.34,80.11,11,10.9,15.84,36.68,11.59,52.48-10.35,38.37-25.32,76.06-43.29,111.56C345,859,326.83,873.81,310.53,878.45c-38,10.85-77.85,15.46-127,24.44C189.26,790.28,225.5,692.54,283,599.74Z"/><path class="cls-1" d="M784.9,261.69c6.28,56.29,12.68,95.77,13.78,135.41.07,2.46-1.78,6.29-4.69,10.74-20.13,30.78-52.36,52.54-88.61,58.76-20.29,3.47-42.55,2.2-60.4-11.7-33.53-26.11-52.58-70.81-86.68-119.51Z"/><path class="cls-1" d="M1360.82,1319.2c25.59-105.65,57.06-223.3,40.57-332-2.19-14.48-4.28-29-6-43.51-12.12-100.92-58.18-196.35-92.55-284.69C1422,746.92,1512.33,1093.05,1360.82,1319.2Z"/><path class="cls-1" d="M1015.74,1509.42c-176.38,35.94-381.4-47.57-466.51-196,74,44.36,144.32,97.71,223.14,130.58C851.77,1477.08,939.66,1489.83,1015.74,1509.42Z"/><path class="cls-2" d="M1253.83,1212.91c-33.71-91-93.51-174.49-152.16-253.45-79.41-106.92-135.18-220.6-151-353.5-4.38-36.76,6.09-54.09,44-64.22C1100,513.52,1164.06,444,1170.81,333.4c5-81.39.52-163.38-.51-245.1-.38-29.45-3-58.88-4.65-88.3C1065.8,7.75,936.84,74.55,879.21,145.31c-74.77,91.8-77.73,236.63-5.74,336.69,14.52-51.3,25.87-102.52,43.6-151.43,27-74.64,55.83-110.35,90.19-123.51C934.14,445.6,869,684.73,984.27,940.79c-31.2-9.75-43.78-9.42-54.38-20.59-73.78-77.8-157.79-146-259.32-180.48-77-26.11-86.79-50.71-64-91.75,32.26-58,38.91-120.22,6.87-179.86-57.1-106.27-162.78-163.59-243.14-247.73-78.26,95.44-106.59,254.11-61.78,337.45,39.19,72.86,100.25,114,180.28,129.65C443,611.32,395.61,538.32,399.22,444.39c93,178.56,185.84,356.51,368.3,468-222,7.65-400.89,108.91-577.09,219.21C250.86,1025,357.37,985.66,463.58,941.88,345.51,886.25,203.32,907.2,120.76,993.4,30.91,1087.22,12.05,1206.86,0,1334.29c16.63,1.42,24.67,3.7,32.15,2.5,101.28-16.27,203.49-28.48,303.44-50.8,130.69-29.18,195.87-106.27,209.07-240.66,3.75-38.26,21.49-51.51,53.87-52.11,68.73-1.26,138.14-6.57,206.13.59,178.94,18.85,318.67,106.39,391,272.46,50.64,116.25,25.46,248-104.36,297.87a297.92,297.92,0,0,1-53.27,56l.58-.13C1237.31,1571.59,1325.14,1405.39,1253.83,1212.91Z"/><path class="cls-1" d="M1091.31,1564.14a281,281,0,0,1-44.29,13.24q-14.58,3-30.5,4.87c-246.13,28.54-443.66-54.29-587.65-258.77-6.74-9.57-20.12-23.6-27.54-22-37.95,8-74.95,20.51-119.81,33.63,21.79,30.38,36.58,54.93,55.1,76.24C526.07,1629.42,767.35,1686,1038,1620.16A297.92,297.92,0,0,0,1091.31,1564.14Z"/></g></g></svg>