<svg xmlns="http://www.w3.org/2000/svg" viewBox="0 0 1594.35 1434"><defs><style>.cls-1{fill:#1e5621;}.cls-2{fill:#3ea143;}.cls-3{fill:#0f0f4c;}</style></defs><g id="Calque_2" data-name="Calque 2"><g id="Calque_1-2" data-name="Calque 1"><path class="cls-1" d="M1174,851.63c15.56-38.92,33.82-77,46.21-116.92,54.88-176.77-11.75-344.69-172.41-434.3-21.86-12.19-28.75-22.42-16.52-45.12,6.79-12.6,9.31-27.52,15.63-47.25,115,60.22,193.55,147.27,227.78,270.34C1314.49,621.36,1279.26,746.39,1174,851.63Z"/><path class="cls-1" d="M477.72,368.82c24.46,18.84,45.17,32.26,62.32,49.27,6.75,6.7,9.74,22.55,7.13,32.27A361,361,0,0,1,520.54,519c-4.69,9.28-15.84,18.4-25.86,21.26-23.39,6.67-47.87,9.51-78.11,15C420.11,486,442.39,425.89,477.72,368.82Z"/><path class="cls-1" d="M786.4,160.93c3.86,34.61,7.8,58.9,8.48,83.27,0,1.52-1.1,3.87-2.89,6.61a82.22,82.22,0,0,1-54.49,36.13c-12.48,2.14-26.17,1.36-37.14-7.19-20.62-16.06-32.34-43.55-53.31-73.49Z"/><path class="cls-1" d="M1140.58,811.27c15.73-65,35.08-137.33,24.94-204.2-1.35-8.91-2.63-17.81-3.7-26.76-7.46-62.06-35.78-120.75-56.92-175.07C1178.2,459.33,1233.75,672.19,1140.58,811.27Z"/><path class="cls-1" d="M928.36,928.24C819.89,950.34,693.81,899,641.47,807.7,687,835,730.22,867.79,778.7,888,827.53,908.36,881.57,916.2,928.36,928.24Z"/><path class="cls-2" d="M1074.78,745.9C1054.05,690,1017.27,638.6,981.21,590c-48.84-65.75-83.14-135.67-92.87-217.39-2.7-22.61,3.75-33.27,27-39.5,64.82-17.35,104.21-60.1,108.35-128.12,3-50.05.33-100.47-.31-150.73-.23-18.11-1.87-36.21-2.86-54.3C959.15,4.77,879.84,45.84,844.4,89.36c-46,56.45-47.8,145.52-3.53,207.05,8.93-31.54,15.91-63,26.81-93.12,16.63-45.9,34.33-67.86,55.47-75.95-45,146.69-85,293.74-14.14,451.22-19.19-6-26.93-5.8-33.44-12.67-45.38-47.84-97-89.8-159.48-111-47.34-16.06-53.37-31.19-39.32-56.43,19.83-35.64,23.92-73.93,4.22-110.61-35.11-65.35-100.11-100.6-149.52-152.34-48.13,58.69-65.55,156.26-38,207.52,24.09,44.8,61.65,70.12,110.86,79.73-28.2-46.84-57.34-91.73-55.12-149.5,57.2,109.81,114.29,219.24,226.49,287.78-136.54,4.7-246.53,67-354.89,134.8,37.17-65.52,102.67-89.71,168-116.64C516.19,545,428.75,557.9,378,610.91c-55.26,57.69-66.85,131.27-74.26,209.63,10.22.88,15.17,2.28,19.77,1.54,62.28-10,125.14-17.51,186.6-31.24,80.37-17.94,120.45-65.35,128.57-148,2.31-23.53,13.22-31.67,33.13-32,42.27-.78,85-4,126.76.36,110,11.59,196,65.43,240.46,167.55,31.14,71.49,15.66,152.49-64.18,183.18a183,183,0,0,1-32.75,34.45l.35-.07C1064.62,966.47,1118.63,864.27,1074.78,745.9Z"/><path class="cls-1" d="M974.83,961.89A171.89,171.89,0,0,1,947.6,970q-9,1.86-18.76,3C777.48,990.58,656,939.65,567.45,813.89c-4.14-5.88-12.37-14.51-16.93-13.54C527.18,805.29,504.43,813,476.84,821c13.4,18.68,22.5,33.78,33.88,46.89C627.23,1002,775.61,1036.83,942.08,996.34A183,183,0,0,0,974.83,961.89Z"/><path class="cls-3" d="M164.58,1311.52l58.34,108.3c-25.23,18-46,9.48-62.22-10-13.06-15.69-22.65-34.4-32.89-52.28-15.79-27.56-39.08-39.43-74.62-37.19,0,27.48.91,53.83-.49,80.06-.49,9.22-6.65,18.12-10.22,27.17-11.16-5-25.24-7.5-32.63-15.86C3,1403.9,1,1389.87.75,1378.52q-1.39-73.79-.24-147.61c.64-42.19,15.31-64.86,56.84-69.62,32.81-3.76,68.92-.24,100.28,10C205.59,1187.1,235.68,1260.39,164.58,1311.52Zm-67.32-28.45c38.37.12,55.87-12.26,56.82-40.19.91-26.49-23.07-45.71-57.22-45.85-32.44-.14-43.89,12.25-43.93,47.53C52.88,1280.65,55.52,1282.94,97.26,1283.07Z"/><path class="cls-3" d="M1490.39,1363.44c6.92,29.81,20.55,36.4,51.59,30.59,13.55-2.54,28.29,1.31,42.5,2.26-11.16,10.43-20.55,25.27-33.76,30.52-57.42,22.83-111.06-18.28-119.58-84.4-4.91-38.11,15.59-60.24,39.51-80,25.46-21,56.42-21.16,86.61-7.63,23.7,10.61,38.3,28.81,37,55.26s-19.36,40.37-43.48,45.39C1531,1359.58,1510.6,1360.88,1490.39,1363.44Zm-.31-41.29c20.47,2.26,43.35,12.46,54.34-14.87,1.91-4.76-9.94-20.42-17.86-22.73C1506.8,1278.77,1492.33,1294.7,1490.08,1322.15Z"/><path class="cls-3" d="M832.72,1246.13c48.53-.1,89,43.77,88.31,95.75-.7,52.44-38.86,92-88.14,91.43-47.68-.58-86.67-42.73-86.82-93.85C745.92,1287.29,784,1246.23,832.72,1246.13Zm37.79,93.46c-1-7.73.54-16.46-3.13-20.91-10.32-12.51-21.57-30.9-34.67-33-21.19-3.35-31.35,16.24-33.19,36.59-1.14,12.55-4,27.39,1.11,37.49,7,13.77,19.62,30.79,32.49,33.44,9,1.84,23.83-17,33.22-28.86C871,1358.45,869.39,1347.49,870.51,1339.59Z"/><path class="cls-3" d="M302,1363.69c5.71,29.2,19.88,36.19,50.9,30.24,13.64-2.62,28.53,1.27,42.85,2.2-11.06,10.49-20.39,24.94-33.53,30.71-37,16.21-78.73,1.78-101.55-31.47-25.24-36.78-21.32-92.42,8.68-123.27,27.89-28.68,70.8-34.35,106.13-13.72,20.47,12,31.9,29.87,29.51,53.8-2.33,23.38-17.76,37.47-39.65,42.36C344.54,1359.18,323.1,1360.76,302,1363.69Zm-1-41.72c20.68,2.65,43.63,12.88,53.85-15.82,1.77-5-8.73-19.19-16-21.59C319.73,1278.32,304.12,1294.52,300.94,1322Z"/><path class="cls-3" d="M997,1256c0,23.92-.15,48.26.06,72.6.11,11.8-.7,23.94,1.75,35.31,3.64,16.86,10.42,32.06,32.28,31.93,21.58-.14,30-14.45,32.13-31.88,2.55-21.39.55-43.3,2.4-64.82,1-11.27,2.85-25.32,10-32.43,7.78-7.77,22.12-9,33.59-13,2.73,8.7,7.66,17.38,7.77,26.12.37,29.49,1.51,59.32-2.25,88.43-5.93,46-39.39,68-92.76,65.06-44.74-2.44-71-27.2-74-72a539.88,539.88,0,0,1,0-70.82C949.89,1261.1,961.56,1253,997,1256Z"/><path class="cls-3" d="M720.74,1295.31c-20-3-34.82-6-49.73-7.06-9.54-.66-19.29,1.69-28.94,2.69,5.89,7.5,10.46,16.9,18,22.09,14.43,10,32.14,15.6,45.58,26.6,28.19,23.07,24.07,63-6.77,82.33-29.31,18.35-76.55,14.45-102.26-9.47-5-4.69-6.87-12.85-10.19-19.41,7.83-2.54,15.9-7.69,23.44-7,11.48,1,22.5,8.19,33.9,8.74,8.42.4,17.15-5.61,25.74-8.77-4.88-7.3-8.32-16.55-15-21.46-10.14-7.5-22.7-11.63-33.86-17.86-22.86-12.78-34.79-31.42-29.52-58.5,5.17-26.51,25.17-36.56,48.38-41.19C669.68,1241,704.78,1259.58,720.74,1295.31Z"/><path class="cls-3" d="M563,1293.92c-20.13-1.79-33.45-3.63-46.82-4-11.35-.3-22.75,1.12-34.12,1.78,8.11,8.14,15.34,17.52,24.57,24.11,11.91,8.51,26.83,13.08,38,22.34,31.66,26.36,25.61,69.09-11.76,86.87-32.5,15.46-63.77,10.17-92.12-10.14-6.42-4.6-8.44-15.36-12.48-23.29,9.1-1.63,18.36-5.21,27.24-4.42,11.52,1,22.7,7.59,34.09,7.75,7,.1,14-7.33,21.05-11.37-4.15-6-7.07-13.83-12.71-17.5-12.33-8-26.29-13.47-39.15-20.75-21-11.86-30.7-29.81-27.6-54.19,3.25-25.55,21.06-36.78,43.14-43C504.05,1239.86,540.43,1255.91,563,1293.92Z"/><path class="cls-3" d="M1305.15,1338.55c-.48,48.41,19.58,63.47,66,52.4,10.28-2.45,22.56,3.54,33.93,5.65-7.55,9-13.32,21.42-22.94,26.44-58.06,30.22-121.41-9.8-129.75-78.07-4.71-38.6,14.3-63.47,41-83.68,27.42-20.76,59.35-20.26,89.15-4.2,9.51,5.12,15.08,17.54,22.46,26.62-11.58,1.94-24,7.5-34.59,5.17C1324,1278.74,1305.62,1291.87,1305.15,1338.55Z"/><path class="cls-3" d="M1143.17,1348.72c2.33-15,2.62-34.16,8.54-51.34,11.53-33.52,42.21-50,80.08-45.31,6.36.79,16.49,6.58,17,10.9.65,6.1-5,17.7-9.84,18.82-48.63,11.27-42.21,49.34-42.65,84.25-.14,10.8,1.65,21.93-.48,32.28-2.06,10-8,19.23-12.26,28.79-11.71-7.43-29-12.34-33.78-22.91C1142.88,1389.1,1145.14,1369.86,1143.17,1348.72Z"/></g></g></svg>